<svg xmlns="http://www.w3.org/2000/svg" xmlns:xlink="http://www.w3.org/1999/xlink" contentStyleType="text/css" data-diagram-type="ACTIVITY" height="1317px" preserveAspectRatio="none" style="width:354px;height:1317px;background:#FFFFFF;" version="1.1" viewBox="0 0 354 1317" width="354px" zoomAndPan="magnify"><?plantuml 1.2026.4?><defs/><g><ellipse cx="193.5183" cy="25" fill="#222222" rx="10" ry="10" style="stroke:#222222;stroke-width:1;"/><rect fill="#F1F1F1" height="33.9688" rx="12.5" ry="12.5" style="stroke:#181818;stroke-width:0.5;" width="63.207" x="161.9148" y="55"/><text fill="#000000" font-family="sans-serif" font-size="12" lengthAdjust="spacing" textLength="43.207" x="171.9148" y="76.1387">&#26222;&#36890;&#29992;&#25143;&#30331;&#24405;</text><rect fill="#F1F1F1" height="33.9688" rx="12.5" ry="12.5" style="stroke:#181818;stroke-width:0.5;" width="70.4082" x="158.3142" y="108.9688"/><text fill="#000000" font-family="sans-serif" font-size="12" lengthAdjust="spacing" textLength="50.4082" x="168.3142" y="130.1074">&#26597;&#30475;&#21487;&#39044;&#32422;&#36710;&#27425;</text><polygon fill="#F1F1F1" points="160.8943,162.9375,226.1423,162.9375,238.1423,174.9375,226.1423,186.9375,160.8943,186.9375,148.8943,174.9375,160.8943,162.9375" style="stroke:#181818;stroke-width:0.5;stroke-linejoin:miter;stroke-miterlimit:10;"/><text fill="#000000" font-family="sans-serif" font-size="11" lengthAdjust="spacing" textLength="65.248" x="160.8943" y="178.7456">&#36710;&#27425;&#21487;&#39044;&#32422;&#19988;&#26377;&#20313;&#24231;?</text><text fill="#000000" font-family="sans-serif" font-size="11" lengthAdjust="spacing" textLength="6.6011" x="142.2932" y="172.3433">&#26159;</text><text fill="#000000" font-family="sans-serif" font-size="11" lengthAdjust="spacing" textLength="6.6011" x="238.1423" y="172.3433">&#21542;</text><rect fill="#F1F1F1" height="33.9688" rx="12.5" ry="12.5" style="stroke:#181818;stroke-width:0.5;" width="48.8047" x="81.0073" y="196.9375"/><text fill="#000000" font-family="sans-serif" font-size="12" lengthAdjust="spacing" textLength="28.8047" x="91.0073" y="218.0762">&#36873;&#25321;&#24231;&#20301;</text><polygon fill="#F1F1F1" points="82.6873,250.9063,128.1321,250.9063,140.1321,262.9063,128.1321,274.9063,82.6873,274.9063,70.6873,262.9063,82.6873,250.9063" style="stroke:#181818;stroke-width:0.5;stroke-linejoin:miter;stroke-miterlimit:10;"/><text fill="#000000" font-family="sans-serif" font-size="11" lengthAdjust="spacing" textLength="45.4448" x="82.6873" y="266.7144">&#26159;&#21542;&#37325;&#22797;&#39044;&#32422;?</text><text fill="#000000" font-family="sans-serif" font-size="11" lengthAdjust="spacing" textLength="6.6011" x="64.0862" y="260.312">&#26159;</text><text fill="#000000" font-family="sans-serif" font-size="11" lengthAdjust="spacing" textLength="6.6011" x="140.1321" y="260.312">&#21542;</text><rect fill="#F1F1F1" height="33.9688" rx="12.5" ry="12.5" style="stroke:#181818;stroke-width:0.5;" width="77.6094" x="16" y="284.9063"/><text fill="#000000" font-family="sans-serif" font-size="12" lengthAdjust="spacing" textLength="57.6094" x="26" y="306.0449">&#25552;&#31034;&#19981;&#33021;&#37325;&#22797;&#39044;&#32422;</text><ellipse cx="54.8047" cy="349.875" fill="none" rx="11" ry="11" style="stroke:#222222;stroke-width:1;"/><ellipse cx="54.8047" cy="349.875" fill="#222222" rx="6" ry="6" style="stroke:#222222;stroke-width:1;"/><rect fill="#F1F1F1" height="33.9688" rx="12.5" ry="12.5" style="stroke:#181818;stroke-width:0.5;" width="63.207" x="124.4111" y="284.9063"/><text fill="#000000" font-family="sans-serif" font-size="12" lengthAdjust="spacing" textLength="43.207" x="134.4111" y="306.0449">&#29983;&#25104;&#39044;&#32422;&#35746;&#21333;</text><rect fill="#F1F1F1" height="33.9688" rx="12.5" ry="12.5" style="stroke:#181818;stroke-width:0.5;" width="80.4629" x="115.7832" y="338.875"/><text fill="#000000" font-family="sans-serif" font-size="12" lengthAdjust="spacing" textLength="60.4629" x="125.7832" y="360.0137">&#35746;&#21333;&#29366;&#24577;=&#24453;&#21457;&#36710;</text><rect fill="#F1F1F1" height="33.9688" rx="12.5" ry="12.5" style="stroke:#181818;stroke-width:0.5;" width="80.4629" x="115.7832" y="392.8438"/><text fill="#000000" font-family="sans-serif" font-size="12" lengthAdjust="spacing" textLength="60.4629" x="125.7832" y="413.9824">&#25903;&#20184;&#29366;&#24577;=&#24453;&#25903;&#20184;</text><rect fill="#F1F1F1" height="33.9688" rx="12.5" ry="12.5" style="stroke:#181818;stroke-width:0.5;" width="84.8105" x="113.6094" y="446.8125"/><text fill="#000000" font-family="sans-serif" font-size="12" lengthAdjust="spacing" textLength="64.8105" x="123.6094" y="467.9512">&#25512;&#36865;&#39044;&#32422;&#24050;&#21019;&#24314;&#36890;&#30693;</text><rect fill="#F1F1F1" height="33.9688" rx="12.5" ry="12.5" style="stroke:#181818;stroke-width:0.5;" width="106.4141" x="228.4199" y="196.9375"/><text fill="#000000" font-family="sans-serif" font-size="12" lengthAdjust="spacing" textLength="86.4141" x="238.4199" y="218.0762">&#25552;&#31034;&#36710;&#27425;&#19981;&#21487;&#39044;&#32422;&#25110;&#24050;&#28385;&#24231;</text><ellipse cx="281.627" cy="261.9063" fill="none" rx="11" ry="11" style="stroke:#222222;stroke-width:1;"/><ellipse cx="281.627" cy="261.9063" fill="#222222" rx="6" ry="6" style="stroke:#222222;stroke-width:1;"/><polygon fill="#F1F1F1" points="170.7959,500.7813,216.2407,500.7813,228.2407,512.7813,216.2407,524.7813,170.7959,524.7813,158.7959,512.7813,170.7959,500.7813" style="stroke:#181818;stroke-width:0.5;stroke-linejoin:miter;stroke-miterlimit:10;"/><text fill="#000000" font-family="sans-serif" font-size="11" lengthAdjust="spacing" textLength="45.4448" x="170.7959" y="516.5894">&#29992;&#25143;&#31435;&#21363;&#25903;&#20184;?</text><text fill="#000000" font-family="sans-serif" font-size="11" lengthAdjust="spacing" textLength="6.6011" x="152.1948" y="510.187">&#26159;</text><text fill="#000000" font-family="sans-serif" font-size="11" lengthAdjust="spacing" textLength="6.6011" x="228.2407" y="510.187">&#21542;</text><rect fill="#F1F1F1" height="33.9688" rx="12.5" ry="12.5" style="stroke:#181818;stroke-width:0.5;" width="92.0117" x="96.9075" y="534.7813"/><text fill="#000000" font-family="sans-serif" font-size="12" lengthAdjust="spacing" textLength="72.0117" x="106.9075" y="555.9199">&#36873;&#25321;&#24494;&#20449;&#25903;&#20184;&#25110;&#25903;&#20184;&#23453;</text><rect fill="#F1F1F1" height="33.9688" rx="12.5" ry="12.5" style="stroke:#181818;stroke-width:0.5;" width="63.207" x="111.3098" y="588.75"/><text fill="#000000" font-family="sans-serif" font-size="12" lengthAdjust="spacing" textLength="43.207" x="121.3098" y="609.8887">&#21019;&#24314;&#25903;&#20184;&#27969;&#27700;</text><rect fill="#F1F1F1" height="33.9688" rx="12.5" ry="12.5" style="stroke:#181818;stroke-width:0.5;" width="80.4629" x="102.6819" y="642.7188"/><text fill="#000000" font-family="sans-serif" font-size="12" lengthAdjust="spacing" textLength="60.4629" x="112.6819" y="663.8574">&#25903;&#20184;&#29366;&#24577;=&#25903;&#20184;&#20013;</text><rect fill="#F1F1F1" height="33.9688" rx="12.5" ry="12.5" style="stroke:#181818;stroke-width:0.5;" width="83.8613" x="100.9827" y="696.6875"/><text fill="#000000" font-family="sans-serif" font-size="12" lengthAdjust="spacing" textLength="63.8613" x="110.9827" y="717.8262">Mock &#25903;&#20184;&#23436;&#25104;</text><rect fill="#F1F1F1" height="33.9688" rx="12.5" ry="12.5" style="stroke:#181818;stroke-width:0.5;" width="80.4629" x="102.6819" y="750.6563"/><text fill="#000000" font-family="sans-serif" font-size="12" lengthAdjust="spacing" textLength="60.4629" x="112.6819" y="771.7949">&#25903;&#20184;&#29366;&#24577;=&#24050;&#25903;&#20184;</text><rect fill="#F1F1F1" height="33.9688" rx="12.5" ry="12.5" style="stroke:#181818;stroke-width:0.5;" width="77.6094" x="104.1086" y="804.625"/><text fill="#000000" font-family="sans-serif" font-size="12" lengthAdjust="spacing" textLength="57.6094" x="114.1086" y="825.7637">&#25512;&#36865;&#25903;&#20184;&#25104;&#21151;&#36890;&#30693;</text><rect fill="#F1F1F1" height="33.9688" rx="12.5" ry="12.5" style="stroke:#181818;stroke-width:0.5;" width="70.4082" x="208.9192" y="534.7813"/><text fill="#000000" font-family="sans-serif" font-size="12" lengthAdjust="spacing" textLength="50.4082" x="218.9192" y="555.9199">&#20445;&#30041;&#24453;&#25903;&#20184;&#35746;&#21333;</text><polygon fill="#F1F1F1" points="193.5183,844.5938,205.5183,856.5938,193.5183,868.5938,181.5183,856.5938,193.5183,844.5938" style="stroke:#181818;stroke-width:0.5;stroke-linejoin:miter;stroke-miterlimit:10;"/><polygon fill="#F1F1F1" points="160.8943,936.9961,226.1423,936.9961,238.1423,948.9961,226.1423,960.9961,160.8943,960.9961,148.8943,948.9961,160.8943,936.9961" style="stroke:#181818;stroke-width:0.5;stroke-linejoin:miter;stroke-miterlimit:10;"/><text fill="#000000" font-family="sans-serif" font-size="11" lengthAdjust="spacing" textLength="65.248" x="160.8943" y="952.8042">&#39044;&#32422;&#24453;&#21457;&#36710;&#19988;&#26410;&#21457;&#36710;?</text><text fill="#000000" font-family="sans-serif" font-size="11" lengthAdjust="spacing" textLength="6.6011" x="142.2932" y="946.4019">&#26159;</text><text fill="#000000" font-family="sans-serif" font-size="11" lengthAdjust="spacing" textLength="6.6011" x="238.1423" y="946.4019">&#21542;</text><rect fill="#F1F1F1" height="33.9688" rx="12.5" ry="12.5" style="stroke:#181818;stroke-width:0.5;" width="63.207" x="107.2908" y="970.9961"/><text fill="#000000" font-family="sans-serif" font-size="12" lengthAdjust="spacing" textLength="43.207" x="117.2908" y="992.1348">&#35745;&#31639;&#21462;&#28040;&#25187;&#20998;</text><rect fill="#F1F1F1" height="33.9688" rx="12.5" ry="12.5" style="stroke:#181818;stroke-width:0.5;" width="80.4629" x="98.6628" y="1024.9648"/><text fill="#000000" font-family="sans-serif" font-size="12" lengthAdjust="spacing" textLength="60.4629" x="108.6628" y="1046.1035">&#39044;&#32422;&#29366;&#24577;=&#24050;&#21462;&#28040;</text><rect fill="#F1F1F1" height="33.9688" rx="12.5" ry="12.5" style="stroke:#181818;stroke-width:0.5;" width="56.0059" x="110.8914" y="1093.9336"/><text fill="#000000" font-family="sans-serif" font-size="12" lengthAdjust="spacing" textLength="36.0059" x="120.8914" y="1115.0723">&#25187;&#20943;&#20449;&#29992;&#20998;</text><rect fill="#F1F1F1" height="33.9688" rx="12.5" ry="12.5" style="stroke:#181818;stroke-width:0.5;" width="63.207" x="107.2908" y="1147.9023"/><text fill="#000000" font-family="sans-serif" font-size="12" lengthAdjust="spacing" textLength="43.207" x="117.2908" y="1169.041">&#25512;&#36865;&#20449;&#29992;&#36890;&#30693;</text><rect fill="#F1F1F1" height="33.9688" rx="12.5" ry="12.5" style="stroke:#181818;stroke-width:0.5;" width="63.207" x="216.5388" y="970.9961"/><text fill="#000000" font-family="sans-serif" font-size="12" lengthAdjust="spacing" textLength="43.207" x="226.5388" y="992.1348">&#25552;&#31034;&#19981;&#21487;&#21462;&#28040;</text><polygon fill="#F1F1F1" points="193.5183,1187.8711,205.5183,1199.8711,193.5183,1211.8711,181.5183,1199.8711,193.5183,1187.8711" style="stroke:#181818;stroke-width:0.5;stroke-linejoin:miter;stroke-miterlimit:10;"/><polygon fill="#F1F1F1" points="170.7959,888.5938,216.2407,888.5938,228.2407,900.5938,216.2407,912.5938,170.7959,912.5938,158.7959,900.5938,170.7959,888.5938" style="stroke:#181818;stroke-width:0.5;stroke-linejoin:miter;stroke-miterlimit:10;"/><text fill="#000000" font-family="sans-serif" font-size="11" lengthAdjust="spacing" textLength="6.6011" x="197.5183" y="922.8042">&#26159;</text><text fill="#000000" font-family="sans-serif" font-size="11" lengthAdjust="spacing" textLength="45.4448" x="170.7959" y="904.4019">&#29992;&#25143;&#21462;&#28040;&#39044;&#32422;?</text><polygon fill="#F1F1F1" points="193.5183,1231.8711,205.5183,1243.8711,193.5183,1255.8711,181.5183,1243.8711,193.5183,1231.8711" style="stroke:#181818;stroke-width:0.5;stroke-linejoin:miter;stroke-miterlimit:10;"/><ellipse cx="193.5183" cy="1286.8711" fill="none" rx="11" ry="11" style="stroke:#222222;stroke-width:1;"/><ellipse cx="193.5183" cy="1286.8711" fill="#222222" rx="6" ry="6" style="stroke:#222222;stroke-width:1;"/><line style="stroke:#181818;stroke-width:1;" x1="193.5183" x2="193.5183" y1="35" y2="55"/><polygon fill="#181818" points="189.5183,45,193.5183,55,197.5183,45,193.5183,49" style="stroke:#181818;stroke-width:1;stroke-linejoin:miter;stroke-miterlimit:10;"/><line style="stroke:#181818;stroke-width:1;" x1="193.5183" x2="193.5183" y1="88.9688" y2="108.9688"/><polygon fill="#181818" points="189.5183,98.9688,193.5183,108.9688,197.5183,98.9688,193.5183,102.9688" style="stroke:#181818;stroke-width:1;stroke-linejoin:miter;stroke-miterlimit:10;"/><line style="stroke:#181818;stroke-width:1;" x1="54.8047" x2="54.8047" y1="318.875" y2="338.875"/><polygon fill="#181818" points="50.8047,328.875,54.8047,338.875,58.8047,328.875,54.8047,332.875" style="stroke:#181818;stroke-width:1;stroke-linejoin:miter;stroke-miterlimit:10;"/><line style="stroke:#181818;stroke-width:1;" x1="156.0146" x2="156.0146" y1="318.875" y2="338.875"/><polygon fill="#181818" points="152.0146,328.875,156.0146,338.875,160.0146,328.875,156.0146,332.875" style="stroke:#181818;stroke-width:1;stroke-linejoin:miter;stroke-miterlimit:10;"/><line style="stroke:#181818;stroke-width:1;" x1="156.0146" x2="156.0146" y1="372.8438" y2="392.8438"/><polygon fill="#181818" points="152.0146,382.8438,156.0146,392.8438,160.0146,382.8438,156.0146,386.8438" style="stroke:#181818;stroke-width:1;stroke-linejoin:miter;stroke-miterlimit:10;"/><line style="stroke:#181818;stroke-width:1;" x1="156.0146" x2="156.0146" y1="426.8125" y2="446.8125"/><polygon fill="#181818" points="152.0146,436.8125,156.0146,446.8125,160.0146,436.8125,156.0146,440.8125" style="stroke:#181818;stroke-width:1;stroke-linejoin:miter;stroke-miterlimit:10;"/><line style="stroke:#181818;stroke-width:1;" x1="70.6873" x2="54.8047" y1="262.9063" y2="262.9063"/><line style="stroke:#181818;stroke-width:1;" x1="54.8047" x2="54.8047" y1="262.9063" y2="284.9063"/><polygon fill="#181818" points="50.8047,274.9063,54.8047,284.9063,58.8047,274.9063,54.8047,278.9063" style="stroke:#181818;stroke-width:1;stroke-linejoin:miter;stroke-miterlimit:10;"/><line style="stroke:#181818;stroke-width:1;" x1="140.1321" x2="156.0146" y1="262.9063" y2="262.9063"/><line style="stroke:#181818;stroke-width:1;" x1="156.0146" x2="156.0146" y1="262.9063" y2="284.9063"/><polygon fill="#181818" points="152.0146,274.9063,156.0146,284.9063,160.0146,274.9063,156.0146,278.9063" style="stroke:#181818;stroke-width:1;stroke-linejoin:miter;stroke-miterlimit:10;"/><line style="stroke:#181818;stroke-width:1;" x1="156.0146" x2="156.0146" y1="480.7813" y2="485.7813"/><line style="stroke:#181818;stroke-width:1;" x1="156.0146" x2="193.5183" y1="485.7813" y2="485.7813"/><line style="stroke:#181818;stroke-width:1;" x1="193.5183" x2="193.5183" y1="485.7813" y2="500.7813"/><polygon fill="#181818" points="189.5183,490.7813,193.5183,500.7813,197.5183,490.7813,193.5183,494.7813" style="stroke:#181818;stroke-width:1;stroke-linejoin:miter;stroke-miterlimit:10;"/><line style="stroke:#181818;stroke-width:1;" x1="105.4097" x2="105.4097" y1="230.9063" y2="250.9063"/><polygon fill="#181818" points="101.4097,240.9063,105.4097,250.9063,109.4097,240.9063,105.4097,244.9063" style="stroke:#181818;stroke-width:1;stroke-linejoin:miter;stroke-miterlimit:10;"/><line style="stroke:#181818;stroke-width:1;" x1="281.627" x2="281.627" y1="230.9063" y2="250.9063"/><polygon fill="#181818" points="277.627,240.9063,281.627,250.9063,285.627,240.9063,281.627,244.9063" style="stroke:#181818;stroke-width:1;stroke-linejoin:miter;stroke-miterlimit:10;"/><line style="stroke:#181818;stroke-width:1;" x1="148.8943" x2="105.4097" y1="174.9375" y2="174.9375"/><line style="stroke:#181818;stroke-width:1;" x1="105.4097" x2="105.4097" y1="174.9375" y2="196.9375"/><polygon fill="#181818" points="101.4097,186.9375,105.4097,196.9375,109.4097,186.9375,105.4097,190.9375" style="stroke:#181818;stroke-width:1;stroke-linejoin:miter;stroke-miterlimit:10;"/><line style="stroke:#181818;stroke-width:1;" x1="238.1423" x2="281.627" y1="174.9375" y2="174.9375"/><line style="stroke:#181818;stroke-width:1;" x1="281.627" x2="281.627" y1="174.9375" y2="196.9375"/><polygon fill="#181818" points="277.627,186.9375,281.627,196.9375,285.627,186.9375,281.627,190.9375" style="stroke:#181818;stroke-width:1;stroke-linejoin:miter;stroke-miterlimit:10;"/><line style="stroke:#181818;stroke-width:1;" x1="193.5183" x2="193.5183" y1="142.9375" y2="162.9375"/><polygon fill="#181818" points="189.5183,152.9375,193.5183,162.9375,197.5183,152.9375,193.5183,156.9375" style="stroke:#181818;stroke-width:1;stroke-linejoin:miter;stroke-miterlimit:10;"/><line style="stroke:#181818;stroke-width:1;" x1="142.9133" x2="142.9133" y1="568.75" y2="588.75"/><polygon fill="#181818" points="138.9133,578.75,142.9133,588.75,146.9133,578.75,142.9133,582.75" style="stroke:#181818;stroke-width:1;stroke-linejoin:miter;stroke-miterlimit:10;"/><line style="stroke:#181818;stroke-width:1;" x1="142.9133" x2="142.9133" y1="622.7188" y2="642.7188"/><polygon fill="#181818" points="138.9133,632.7188,142.9133,642.7188,146.9133,632.7188,142.9133,636.7188" style="stroke:#181818;stroke-width:1;stroke-linejoin:miter;stroke-miterlimit:10;"/><line style="stroke:#181818;stroke-width:1;" x1="142.9133" x2="142.9133" y1="676.6875" y2="696.6875"/><polygon fill="#181818" points="138.9133,686.6875,142.9133,696.6875,146.9133,686.6875,142.9133,690.6875" style="stroke:#181818;stroke-width:1;stroke-linejoin:miter;stroke-miterlimit:10;"/><line style="stroke:#181818;stroke-width:1;" x1="142.9133" x2="142.9133" y1="730.6563" y2="750.6563"/><polygon fill="#181818" points="138.9133,740.6563,142.9133,750.6563,146.9133,740.6563,142.9133,744.6563" style="stroke:#181818;stroke-width:1;stroke-linejoin:miter;stroke-miterlimit:10;"/><line style="stroke:#181818;stroke-width:1;" x1="142.9133" x2="142.9133" y1="784.625" y2="804.625"/><polygon fill="#181818" points="138.9133,794.625,142.9133,804.625,146.9133,794.625,142.9133,798.625" style="stroke:#181818;stroke-width:1;stroke-linejoin:miter;stroke-miterlimit:10;"/><line style="stroke:#181818;stroke-width:1;" x1="158.7959" x2="142.9133" y1="512.7813" y2="512.7813"/><line style="stroke:#181818;stroke-width:1;" x1="142.9133" x2="142.9133" y1="512.7813" y2="534.7813"/><polygon fill="#181818" points="138.9133,524.7813,142.9133,534.7813,146.9133,524.7813,142.9133,528.7813" style="stroke:#181818;stroke-width:1;stroke-linejoin:miter;stroke-miterlimit:10;"/><line style="stroke:#181818;stroke-width:1;" x1="228.2407" x2="244.1233" y1="512.7813" y2="512.7813"/><line style="stroke:#181818;stroke-width:1;" x1="244.1233" x2="244.1233" y1="512.7813" y2="534.7813"/><polygon fill="#181818" points="240.1233,524.7813,244.1233,534.7813,248.1233,524.7813,244.1233,528.7813" style="stroke:#181818;stroke-width:1;stroke-linejoin:miter;stroke-miterlimit:10;"/><line style="stroke:#181818;stroke-width:1;" x1="142.9133" x2="142.9133" y1="838.5938" y2="856.5938"/><line style="stroke:#181818;stroke-width:1;" x1="142.9133" x2="181.5183" y1="856.5938" y2="856.5938"/><polygon fill="#181818" points="171.5183,852.5938,181.5183,856.5938,171.5183,860.5938,175.5183,856.5938" style="stroke:#181818;stroke-width:1;stroke-linejoin:miter;stroke-miterlimit:10;"/><line style="stroke:#181818;stroke-width:1;" x1="244.1233" x2="244.1233" y1="568.75" y2="856.5938"/><line style="stroke:#181818;stroke-width:1;" x1="244.1233" x2="205.5183" y1="856.5938" y2="856.5938"/><polygon fill="#181818" points="215.5183,852.5938,205.5183,856.5938,215.5183,860.5938,211.5183,856.5938" style="stroke:#181818;stroke-width:1;stroke-linejoin:miter;stroke-miterlimit:10;"/><line style="stroke:#181818;stroke-width:1;" x1="138.8943" x2="138.8943" y1="1004.9648" y2="1024.9648"/><polygon fill="#181818" points="134.8943,1014.9648,138.8943,1024.9648,142.8943,1014.9648,138.8943,1018.9648" style="stroke:#181818;stroke-width:1;stroke-linejoin:miter;stroke-miterlimit:10;"/><line style="stroke:#181818;stroke-width:1;" x1="138.8943" x2="138.8943" y1="1058.9336" y2="1093.9336"/><polygon fill="#181818" points="134.8943,1083.9336,138.8943,1093.9336,142.8943,1083.9336,138.8943,1087.9336" style="stroke:#181818;stroke-width:1;stroke-linejoin:miter;stroke-miterlimit:10;"/><line style="stroke:#181818;stroke-width:1;" x1="138.8943" x2="138.8943" y1="1127.9023" y2="1147.9023"/><polygon fill="#181818" points="134.8943,1137.9023,138.8943,1147.9023,142.8943,1137.9023,138.8943,1141.9023" style="stroke:#181818;stroke-width:1;stroke-linejoin:miter;stroke-miterlimit:10;"/><line style="stroke:#181818;stroke-width:1;" x1="148.8943" x2="138.8943" y1="948.9961" y2="948.9961"/><line style="stroke:#181818;stroke-width:1;" x1="138.8943" x2="138.8943" y1="948.9961" y2="970.9961"/><polygon fill="#181818" points="134.8943,960.9961,138.8943,970.9961,142.8943,960.9961,138.8943,964.9961" style="stroke:#181818;stroke-width:1;stroke-linejoin:miter;stroke-miterlimit:10;"/><line style="stroke:#181818;stroke-width:1;" x1="238.1423" x2="248.1423" y1="948.9961" y2="948.9961"/><line style="stroke:#181818;stroke-width:1;" x1="248.1423" x2="248.1423" y1="948.9961" y2="970.9961"/><polygon fill="#181818" points="244.1423,960.9961,248.1423,970.9961,252.1423,960.9961,248.1423,964.9961" style="stroke:#181818;stroke-width:1;stroke-linejoin:miter;stroke-miterlimit:10;"/><line style="stroke:#181818;stroke-width:1;" x1="138.8943" x2="138.8943" y1="1181.8711" y2="1199.8711"/><line style="stroke:#181818;stroke-width:1;" x1="138.8943" x2="181.5183" y1="1199.8711" y2="1199.8711"/><polygon fill="#181818" points="171.5183,1195.8711,181.5183,1199.8711,171.5183,1203.8711,175.5183,1199.8711" style="stroke:#181818;stroke-width:1;stroke-linejoin:miter;stroke-miterlimit:10;"/><line style="stroke:#181818;stroke-width:1;" x1="248.1423" x2="248.1423" y1="1004.9648" y2="1199.8711"/><line style="stroke:#181818;stroke-width:1;" x1="248.1423" x2="205.5183" y1="1199.8711" y2="1199.8711"/><polygon fill="#181818" points="215.5183,1195.8711,205.5183,1199.8711,215.5183,1203.8711,211.5183,1199.8711" style="stroke:#181818;stroke-width:1;stroke-linejoin:miter;stroke-miterlimit:10;"/><line style="stroke:#181818;stroke-width:1;" x1="193.5183" x2="193.5183" y1="912.5938" y2="936.9961"/><polygon fill="#181818" points="189.5183,926.9961,193.5183,936.9961,197.5183,926.9961,193.5183,930.9961" style="stroke:#181818;stroke-width:1;stroke-linejoin:miter;stroke-miterlimit:10;"/><line style="stroke:#181818;stroke-width:1;" x1="228.2407" x2="299.7458" y1="900.5938" y2="900.5938"/><polygon fill="#181818" points="295.7458,1064.4336,299.7458,1074.4336,303.7458,1064.4336,299.7458,1068.4336" style="stroke:#181818;stroke-width:1;stroke-linejoin:miter;stroke-miterlimit:10;"/><line style="stroke:#181818;stroke-width:1;" x1="299.7458" x2="299.7458" y1="900.5938" y2="1243.8711"/><line style="stroke:#181818;stroke-width:1;" x1="299.7458" x2="205.5183" y1="1243.8711" y2="1243.8711"/><polygon fill="#181818" points="215.5183,1239.8711,205.5183,1243.8711,215.5183,1247.8711,211.5183,1243.8711" style="stroke:#181818;stroke-width:1;stroke-linejoin:miter;stroke-miterlimit:10;"/><line style="stroke:#181818;stroke-width:1;" x1="193.5183" x2="193.5183" y1="1211.8711" y2="1231.8711"/><polygon fill="#181818" points="189.5183,1221.8711,193.5183,1231.8711,197.5183,1221.8711,193.5183,1225.8711" style="stroke:#181818;stroke-width:1;stroke-linejoin:miter;stroke-miterlimit:10;"/><line style="stroke:#181818;stroke-width:1;" x1="193.5183" x2="193.5183" y1="868.5938" y2="888.5938"/><polygon fill="#181818" points="189.5183,878.5938,193.5183,888.5938,197.5183,878.5938,193.5183,882.5938" style="stroke:#181818;stroke-width:1;stroke-linejoin:miter;stroke-miterlimit:10;"/><line style="stroke:#181818;stroke-width:1;" x1="193.5183" x2="193.5183" y1="1255.8711" y2="1275.8711"/><polygon fill="#181818" points="189.5183,1265.8711,193.5183,1275.8711,197.5183,1265.8711,193.5183,1269.8711" style="stroke:#181818;stroke-width:1;stroke-linejoin:miter;stroke-miterlimit:10;"/><?plantuml-src TL9RJi9G4Frd5Vs4BT0OL-0YZ9P8D6241K1yKC1QJ02fGfeY8BwAyG6afB2PtdlfBfnsRbiG_6dcpfavdJbdSldzitmiIJNJBTop-f3A4wRDYDqG8QdtMRjAr97RlM3MO6aFw9iXnj8f8Ovn23dJEcsN7LiZrjDkGiWVIHaXJbkZH4mGacwXJAlFW3Ys8aB2wmUCr0PkII4z1Id-ja4ZLMkiPpbJPNbkhvQAFfpBPqyXa4voaX07Cjx4wZgLQtnYiqkK1fOdyS4gOreexf3v9L5lOGiEqlh8cRKY4Dy1U3Dq2qMa99DF8Z-GcUN9fVUz2Ybpc4x5rkRWewDAi40e59MRm41d1iZXzVfB886lAtVWjKgKBvpXFpddfhCmi0H8CI1cnoDDueGS_2dIZsy_lROaFfpfkm_jPG-EXO3a6WJSRF3c3bNXcWJ_hv6A7WYoBeIpwB265YeQEBAnCb6RT2nlFmMlYgiVsEOVt0l6MovdQHhCl4DEMduayXMt4ccYZR0ay1agIoh82YD5BRWfPbTC_tDsuQs2rH4fFmt_wrdz2m00?></g></svg>