<?plantuml 1.2026.1?><svg xmlns="http://www.w3.org/2000/svg" xmlns:xlink="http://www.w3.org/1999/xlink" contentStyleType="text/css" data-diagram-type="DESCRIPTION" height="1724px" preserveAspectRatio="none" style="width:951px;height:1724px;background:#FFFFFF;" version="1.1" viewBox="0 0 951 1724" width="951px" zoomAndPan="magnify"><defs/><g><!--cluster ??????--><g class="cluster" data-qualified-name="......" data-source-line="19" id="ent0005"><rect fill="none" height="1169" rx="2.5" ry="2.5" style="stroke:#181818;stroke-width:1;" width="824.61" x="121" y="229.92"/><text fill="#000000" font-family="'Microsoft YaHei, SimHei, Arial, sans-serif'" font-size="15" font-weight="bold" lengthAdjust="spacing" textLength="90.0006" x="488.3047" y="253.8433">&#26657;&#36710;&#31649;&#29702;&#31995;&#32479;</text></g><!--entity UC_Login--><g class="entity" data-qualified-name=".......UC_Login" data-source-line="20" id="ent0006"><ellipse cx="196.8163" cy="781.9216" fill="#F1F1F1" rx="36.3763" ry="17.9716" style="stroke:#181818;stroke-width:0.5;"/><text fill="#000000" font-family="'Microsoft YaHei, SimHei, Arial, sans-serif'" font-size="14" lengthAdjust="spacing" textLength="55.9998" x="168.8164" y="786.57">&#30331;&#24405;&#31995;&#32479;</text></g><!--entity UC_ViewTrip--><g class="entity" data-qualified-name=".......UC_ViewTrip" data-source-line="21" id="ent0007"><ellipse cx="429.6263" cy="307.9216" fill="#F1F1F1" rx="36.3763" ry="17.9716" style="stroke:#181818;stroke-width:0.5;"/><text fill="#000000" font-family="'Microsoft YaHei, SimHei, Arial, sans-serif'" font-size="14" lengthAdjust="spacing" textLength="55.9998" x="401.6264" y="312.57">&#26597;&#30475;&#36710;&#27425;</text></g><!--entity UC_Book--><g class="entity" data-qualified-name=".......UC_Book" data-source-line="22" id="ent0008"><ellipse cx="196.8163" cy="299.9216" fill="#F1F1F1" rx="36.3763" ry="17.9716" style="stroke:#181818;stroke-width:0.5;"/><text fill="#000000" font-family="'Microsoft YaHei, SimHei, Arial, sans-serif'" font-size="14" lengthAdjust="spacing" textLength="55.9998" x="168.8164" y="304.57">&#39044;&#32422;&#36710;&#27425;</text></g><!--entity UC_Pay--><g class="entity" data-qualified-name=".......UC_Pay" data-source-line="23" id="ent0009"><ellipse cx="196.8163" cy="395.9216" fill="#F1F1F1" rx="36.3763" ry="17.9716" style="stroke:#181818;stroke-width:0.5;"/><text fill="#000000" font-family="'Microsoft YaHei, SimHei, Arial, sans-serif'" font-size="14" lengthAdjust="spacing" textLength="55.9998" x="168.8164" y="400.57">&#25903;&#20184;&#36710;&#36153;</text></g><!--entity UC_Cancel--><g class="entity" data-qualified-name=".......UC_Cancel" data-source-line="24" id="ent0010"><ellipse cx="196.8163" cy="491.9216" fill="#F1F1F1" rx="36.3763" ry="17.9716" style="stroke:#181818;stroke-width:0.5;"/><text fill="#000000" font-family="'Microsoft YaHei, SimHei, Arial, sans-serif'" font-size="14" lengthAdjust="spacing" textLength="55.9998" x="168.8164" y="496.57">&#21462;&#28040;&#39044;&#32422;</text></g><!--entity UC_Credit--><g class="entity" data-qualified-name=".......UC_Credit" data-source-line="25" id="ent0011"><ellipse cx="429.6251" cy="451.924" fill="#F1F1F1" rx="51.9951" ry="18.824" style="stroke:#181818;stroke-width:0.5;"/><text fill="#000000" font-family="'Microsoft YaHei, SimHei, Arial, sans-serif'" font-size="14" lengthAdjust="spacing" textLength="83.9996" x="387.6253" y="456.5724">&#26597;&#30475;&#20449;&#29992;&#31561;&#32423;</text></g><!--entity UC_Notify--><g class="entity" data-qualified-name=".......UC_Notify" data-source-line="26" id="ent0012"><ellipse cx="196.8163" cy="587.9216" fill="#F1F1F1" rx="36.3763" ry="17.9716" style="stroke:#181818;stroke-width:0.5;"/><text fill="#000000" font-family="'Microsoft YaHei, SimHei, Arial, sans-serif'" font-size="14" lengthAdjust="spacing" textLength="55.9998" x="168.8164" y="592.57">&#26597;&#30475;&#36890;&#30693;</text></g><!--entity UC_Task--><g class="entity" data-qualified-name=".......UC_Task" data-source-line="28" id="ent0013"><ellipse cx="877.6051" cy="1343.924" fill="#F1F1F1" rx="51.9951" ry="18.824" style="stroke:#181818;stroke-width:0.5;"/><text fill="#000000" font-family="'Microsoft YaHei, SimHei, Arial, sans-serif'" font-size="14" lengthAdjust="spacing" textLength="83.9996" x="835.6053" y="1348.5724">&#26597;&#30475;&#27966;&#36710;&#20219;&#21153;</text></g><!--entity UC_PassengerList--><g class="entity" data-qualified-name=".......UC_PassengerList" data-source-line="29" id="ent0014"><ellipse cx="196.8151" cy="1265.924" fill="#F1F1F1" rx="51.9951" ry="18.824" style="stroke:#181818;stroke-width:0.5;"/><text fill="#000000" font-family="'Microsoft YaHei, SimHei, Arial, sans-serif'" font-size="14" lengthAdjust="spacing" textLength="83.9996" x="154.8153" y="1270.5724">&#26597;&#30475;&#20056;&#23458;&#21517;&#21333;</text></g><!--entity UC_DriverStats--><g class="entity" data-qualified-name=".......UC_DriverStats" data-source-line="30" id="ent0015"><ellipse cx="196.8175" cy="1363.9168" fill="#F1F1F1" rx="59.8175" ry="19.0968" style="stroke:#181818;stroke-width:0.5;"/><text fill="#000000" font-family="'Microsoft YaHei, SimHei, Arial, sans-serif'" font-size="14" lengthAdjust="spacing" textLength="97.9996" x="147.8177" y="1368.5652">&#26597;&#30475;&#26085;&#21608;&#26376;&#32479;&#35745;</text></g><!--entity UC_ShareLocation--><g class="entity" data-qualified-name=".......UC_ShareLocation" data-source-line="31" id="ent0016"><ellipse cx="654.6151" cy="1322.924" fill="#F1F1F1" rx="51.9951" ry="18.824" style="stroke:#181818;stroke-width:0.5;"/><text fill="#000000" font-family="'Microsoft YaHei, SimHei, Arial, sans-serif'" font-size="14" lengthAdjust="spacing" textLength="83.9996" x="612.6153" y="1327.5724">&#20849;&#20139;&#23454;&#26102;&#20301;&#32622;</text></g><!--entity UC_Vehicle--><g class="entity" data-qualified-name=".......UC_Vehicle" data-source-line="33" id="ent0017"><ellipse cx="196.8163" cy="877.9216" fill="#F1F1F1" rx="36.3763" ry="17.9716" style="stroke:#181818;stroke-width:0.5;"/><text fill="#000000" font-family="'Microsoft YaHei, SimHei, Arial, sans-serif'" font-size="14" lengthAdjust="spacing" textLength="55.9998" x="168.8164" y="882.57">&#36710;&#36742;&#31649;&#29702;</text></g><!--entity UC_DriverMgmt--><g class="entity" data-qualified-name=".......UC_DriverMgmt" data-source-line="34" id="ent0018"><ellipse cx="196.8163" cy="973.9216" fill="#F1F1F1" rx="36.3763" ry="17.9716" style="stroke:#181818;stroke-width:0.5;"/><text fill="#000000" font-family="'Microsoft YaHei, SimHei, Arial, sans-serif'" font-size="14" lengthAdjust="spacing" textLength="55.9998" x="168.8164" y="978.57">&#21496;&#26426;&#31649;&#29702;</text></g><!--entity UC_ManualDispatch--><g class="entity" data-qualified-name=".......UC_ManualDispatch" data-source-line="35" id="ent0019"><ellipse cx="429.6263" cy="828.9216" fill="#F1F1F1" rx="36.3763" ry="17.9716" style="stroke:#181818;stroke-width:0.5;"/><text fill="#000000" font-family="'Microsoft YaHei, SimHei, Arial, sans-serif'" font-size="14" lengthAdjust="spacing" textLength="55.9998" x="401.6264" y="833.57">&#20154;&#24037;&#35843;&#24230;</text></g><!--entity UC_AiDispatch--><g class="entity" data-qualified-name=".......UC_AiDispatch" data-source-line="36" id="ent0020"><ellipse cx="196.819" cy="1070.9228" fill="#F1F1F1" rx="46.499" ry="18.5828" style="stroke:#181818;stroke-width:0.5;"/><text fill="#000000" font-family="'Microsoft YaHei, SimHei, Arial, sans-serif'" font-size="14" lengthAdjust="spacing" textLength="74.156" x="159.741" y="1075.5712">AI &#36741;&#21161;&#35843;&#24230;</text></g><!--entity UC_Tracking--><g class="entity" data-qualified-name=".......UC_Tracking" data-source-line="37" id="ent0021"><ellipse cx="429.6251" cy="1322.924" fill="#F1F1F1" rx="51.9951" ry="18.824" style="stroke:#181818;stroke-width:0.5;"/><text fill="#000000" font-family="'Microsoft YaHei, SimHei, Arial, sans-serif'" font-size="14" lengthAdjust="spacing" textLength="83.9996" x="387.6253" y="1327.5724">&#23454;&#26102;&#20301;&#32622;&#30417;&#25511;</text></g><!--entity UC_ETA--><g class="entity" data-qualified-name=".......UC_ETA" data-source-line="38" id="ent0022"><ellipse cx="196.8183" cy="1167.9174" fill="#F1F1F1" rx="53.9083" ry="18.8974" style="stroke:#181818;stroke-width:0.5;"/><text fill="#000000" font-family="'Microsoft YaHei, SimHei, Arial, sans-serif'" font-size="14" lengthAdjust="spacing" textLength="87.4246" x="153.106" y="1172.5658">&#26597;&#30475;&#23458;&#25143; ETA</text></g><!--entity UC_Analytics--><g class="entity" data-qualified-name=".......UC_Analytics" data-source-line="39" id="ent0023"><ellipse cx="196.8151" cy="684.924" fill="#F1F1F1" rx="51.9951" ry="18.824" style="stroke:#181818;stroke-width:0.5;"/><text fill="#000000" font-family="'Microsoft YaHei, SimHei, Arial, sans-serif'" font-size="14" lengthAdjust="spacing" textLength="83.9996" x="154.8153" y="689.5724">&#21382;&#21490;&#25968;&#25454;&#20998;&#26512;</text></g><!--entity Passenger--><g class="entity" data-qualified-name="Passenger" data-source-line="15" id="ent0002"><ellipse cx="40.9999" cy="358.27" fill="#F1F1F1" rx="8" ry="8" style="stroke:#181818;stroke-width:0.5;"/><path d="M40.9999,366.27 L40.9999,393.27 M27.9999,374.27 L53.9999,374.27 M40.9999,393.27 L27.9999,408.27 M40.9999,393.27 L53.9999,408.27" fill="none" style="stroke:#181818;stroke-width:0.5;"/><text fill="#000000" font-family="'Microsoft YaHei, SimHei, Arial, sans-serif'" font-size="14" lengthAdjust="spacing" textLength="55.9998" x="13" y="430.7651">&#26222;&#36890;&#29992;&#25143;</text></g><!--entity Driver--><g class="entity" data-qualified-name="Driver" data-source-line="16" id="ent0003"><ellipse cx="40.9999" cy="1491.27" fill="#F1F1F1" rx="8" ry="8" style="stroke:#181818;stroke-width:0.5;"/><path d="M40.9999,1499.27 L40.9999,1526.27 M27.9999,1507.27 L53.9999,1507.27 M40.9999,1526.27 L27.9999,1541.27 M40.9999,1526.27 L53.9999,1541.27" fill="none" style="stroke:#181818;stroke-width:0.5;"/><text fill="#000000" font-family="'Microsoft YaHei, SimHei, Arial, sans-serif'" font-size="14" lengthAdjust="spacing" textLength="27.9999" x="27" y="1563.7651">&#21496;&#26426;</text></g><!--entity Admin--><g class="entity" data-qualified-name="Admin" data-source-line="17" id="ent0004"><ellipse cx="40.9998" cy="886.27" fill="#F1F1F1" rx="8" ry="8" style="stroke:#181818;stroke-width:0.5;"/><path d="M40.9998,894.27 L40.9998,921.27 M27.9998,902.27 L53.9998,902.27 M40.9998,921.27 L27.9998,936.27 M40.9998,921.27 L53.9998,936.27" fill="none" style="stroke:#181818;stroke-width:0.5;"/><text fill="#000000" font-family="'Microsoft YaHei, SimHei, Arial, sans-serif'" font-size="14" lengthAdjust="spacing" textLength="69.9997" x="6" y="958.7651">&#21518;&#21488;&#31649;&#29702;&#21592;</text></g><!--link Passenger to UC_Login--><g class="link" data-entity-1="ent0002" data-entity-2="ent0006" data-link-type="dependency" data-source-line="42" id="lnk24"><path d="M47.07,442.53 C56.67,523.94 79.61,687.77 113,733.92 C126.05,751.96 142.6021,761.9371 160.6821,769.5671" fill="none" id="Passenger-to-UC_Login" style="stroke:#181818;stroke-width:1;"/><polygon fill="#181818" points="166.21,771.9,159.4734,764.7154,161.6034,769.956,156.3629,772.086,166.21,771.9" style="stroke:#181818;stroke-width:1;"/></g><!--link Passenger to UC_ViewTrip--><g class="link" data-entity-1="ent0002" data-entity-2="ent0007" data-link-type="dependency" data-source-line="43" id="lnk25"><path d="M45.15,349.28 C51.72,268.15 70.01,106.49 113,72.92 C198.71,6 271.19,9.96 357.63,75.92 C425.95,128.04 430.6003,238.4214 429.6203,283.5414" fill="none" id="Passenger-to-UC_ViewTrip" style="stroke:#181818;stroke-width:1;"/><polygon fill="#181818" points="429.49,289.54,433.6845,280.629,429.5986,284.5412,425.6864,280.4553,429.49,289.54" style="stroke:#181818;stroke-width:1;"/></g><!--link Passenger to UC_Book--><g class="link" data-entity-1="ent0002" data-entity-2="ent0008" data-link-type="dependency" data-source-line="44" id="lnk26"><path d="M77.46,368.29 C85.99,362.02 95.19,355.55 104,349.92 C125.72,336.04 146.2499,324.9156 164.9899,315.3156" fill="none" id="Passenger-to-UC_Book" style="stroke:#181818;stroke-width:1;"/><polygon fill="#181818" points="170.33,312.58,160.4961,313.1233,165.8799,314.8597,164.1436,320.2434,170.33,312.58" style="stroke:#181818;stroke-width:1;"/></g><!--link Passenger to UC_Pay--><g class="link" data-entity-1="ent0002" data-entity-2="ent0009" data-link-type="dependency" data-source-line="45" id="lnk27"><path d="M77.29,395.92 C102.12,395.92 129.24,395.92 154.16,395.92" fill="none" id="Passenger-to-UC_Pay" style="stroke:#181818;stroke-width:1;"/><polygon fill="#181818" points="160.16,395.92,151.16,391.92,155.16,395.92,151.16,399.92,160.16,395.92" style="stroke:#181818;stroke-width:1;"/></g><!--link Passenger to UC_Cancel--><g class="link" data-entity-1="ent0002" data-entity-2="ent0010" data-link-type="dependency" data-source-line="46" id="lnk28"><path d="M77.44,420.58 C88.7,428.23 101.27,436.57 113,443.92 C132.43,456.1 149.7531,466.154 166.4131,475.544" fill="none" id="Passenger-to-UC_Cancel" style="stroke:#181818;stroke-width:1;"/><polygon fill="#181818" points="171.64,478.49,165.7636,470.5863,167.2842,476.035,161.8356,477.5556,171.64,478.49" style="stroke:#181818;stroke-width:1;"/></g><!--link Passenger to UC_Credit--><g class="link" data-entity-1="ent0002" data-entity-2="ent0011" data-link-type="dependency" data-source-line="47" id="lnk29"><path d="M48.42,349.46 C58.54,283.93 80.45,169.54 113,144.92 C199.72,79.33 277.21,71.76 357.63,144.92 C392.47,176.61 364.1,310.81 377.63,355.92 C386.26,384.66 400.5787,409.6937 412.6687,428.3637" fill="none" id="Passenger-to-UC_Credit" style="stroke:#181818;stroke-width:1;"/><polygon fill="#181818" points="415.93,433.4,414.3956,423.6714,413.2123,429.2031,407.6805,428.0198,415.93,433.4" style="stroke:#181818;stroke-width:1;"/></g><!--link Passenger to UC_Notify--><g class="link" data-entity-1="ent0002" data-entity-2="ent0012" data-link-type="dependency" data-source-line="48" id="lnk30"><path d="M56.86,442.26 C68.42,472.75 86.92,512.03 113,539.92 C128.21,556.19 144.7467,566.056 162.2367,574.166" fill="none" id="Passenger-to-UC_Notify" style="stroke:#181818;stroke-width:1;"/><polygon fill="#181818" points="167.68,576.69,161.1978,569.2751,163.1439,574.5867,157.8324,576.5328,167.68,576.69" style="stroke:#181818;stroke-width:1;"/></g><!--link Driver to UC_Login--><g class="link" data-entity-1="ent0003" data-entity-2="ent0006" data-link-type="dependency" data-source-line="50" id="lnk31"><path d="M45.55,1482.47 C57.31,1330.67 95.24,857.43 113,829.92 C125.08,811.21 141.6407,801.197 159.9907,793.747" fill="none" id="Driver-to-UC_Login" style="stroke:#181818;stroke-width:1;"/><polygon fill="#181818" points="165.55,791.49,155.7064,791.1694,160.9173,793.3709,158.7158,798.5818,165.55,791.49" style="stroke:#181818;stroke-width:1;"/></g><!--link Driver to UC_Task--><g class="link" data-entity-1="ent0003" data-entity-2="ent0013" data-link-type="dependency" data-source-line="51" id="lnk32"><path d="M56.76,1575.15 C77.86,1631.11 122.42,1717.92 195.82,1717.92 C195.82,1717.92 195.82,1717.92 655.62,1717.92 C822.29,1717.92 865.2018,1445.1504 874.0018,1368.9404" fill="none" id="Driver-to-UC_Task" style="stroke:#181818;stroke-width:1;"/><polygon fill="#181818" points="874.69,1362.98,869.684,1371.4618,874.1165,1367.947,877.6312,1372.3794,874.69,1362.98" style="stroke:#181818;stroke-width:1;"/></g><!--link Driver to UC_PassengerList--><g class="link" data-entity-1="ent0003" data-entity-2="ent0014" data-link-type="dependency" data-source-line="52" id="lnk33"><path d="M47.74,1482.65 C55.56,1435.98 73.45,1363.99 113,1314.92 C125.48,1299.44 138.8589,1290.4036 155.3789,1282.3336" fill="none" id="Driver-to-UC_PassengerList" style="stroke:#181818;stroke-width:1;"/><polygon fill="#181818" points="160.77,1279.7,150.9276,1280.0563,156.2774,1281.8946,154.439,1287.2444,160.77,1279.7" style="stroke:#181818;stroke-width:1;"/></g><!--link Driver to UC_DriverStats--><g class="link" data-entity-1="ent0003" data-entity-2="ent0015" data-link-type="dependency" data-source-line="53" id="lnk34"><path d="M63.39,1520.03 C76.37,1513.94 92.74,1504.98 105,1493.92 C141.59,1460.91 168.5783,1415.7898 183.2083,1388.4598" fill="none" id="Driver-to-UC_DriverStats" style="stroke:#181818;stroke-width:1;"/><polygon fill="#181818" points="186.04,1383.17,178.266,1389.2169,183.6803,1387.5781,185.319,1392.9924,186.04,1383.17" style="stroke:#181818;stroke-width:1;"/></g><!--link Driver to UC_ShareLocation--><g class="link" data-entity-1="ent0003" data-entity-2="ent0016" data-link-type="dependency" data-source-line="54" id="lnk35"><path d="M63.23,1523.28 C114.33,1509.58 248.03,1472.93 357.63,1435.92 C453.52,1403.54 558.9224,1361.5913 613.7524,1339.2813" fill="none" id="Driver-to-UC_ShareLocation" style="stroke:#181818;stroke-width:1;"/><polygon fill="#181818" points="619.31,1337.02,609.4661,1336.707,614.6787,1338.9044,612.4812,1344.117,619.31,1337.02" style="stroke:#181818;stroke-width:1;"/></g><!--link Admin to UC_Login--><g class="link" data-entity-1="ent0004" data-entity-2="ent0006" data-link-type="dependency" data-source-line="56" id="lnk36"><path d="M71.56,877.33 C83.22,861.13 97.53,843.61 113,829.92 C129.8,815.05 146.5366,805.1795 163.6866,796.6595" fill="none" id="Admin-to-UC_Login" style="stroke:#181818;stroke-width:1;"/><polygon fill="#181818" points="169.06,793.99,159.2202,794.4119,164.5821,796.2146,162.7795,801.5765,169.06,793.99" style="stroke:#181818;stroke-width:1;"/></g><!--link Admin to UC_Vehicle--><g class="link" data-entity-1="ent0004" data-entity-2="ent0017" data-link-type="dependency" data-source-line="57" id="lnk37"><path d="M84.44,911.23 C110.05,903.57 136.3417,895.7098 159.4717,888.7898" fill="none" id="Admin-to-UC_Vehicle" style="stroke:#181818;stroke-width:1;"/><polygon fill="#181818" points="165.22,887.07,155.4511,885.8175,160.4298,888.5031,157.7441,893.4818,165.22,887.07" style="stroke:#181818;stroke-width:1;"/></g><!--link Admin to UC_DriverMgmt--><g class="link" data-entity-1="ent0004" data-entity-2="ent0018" data-link-type="dependency" data-source-line="58" id="lnk38"><path d="M84.44,937.72 C110.23,946.1 136.8238,954.7455 159.9938,962.2755" fill="none" id="Admin-to-UC_DriverMgmt" style="stroke:#181818;stroke-width:1;"/><polygon fill="#181818" points="165.7,964.13,158.377,957.5442,160.9448,962.5846,155.9044,965.1525,165.7,964.13" style="stroke:#181818;stroke-width:1;"/></g><!--link Admin to UC_ManualDispatch--><g class="link" data-entity-1="ent0004" data-entity-2="ent0019" data-link-type="dependency" data-source-line="59" id="lnk39"><path d="M46.07,877.5 C59.36,727.12 101.31,262.44 113,251.92 C193.83,179.18 278.8,180.04 357.63,254.92 C377.52,273.81 374.41,473.69 377.63,500.92 C391.67,619.67 415.3993,755.5045 424.2793,804.9445" fill="none" id="Admin-to-UC_ManualDispatch" style="stroke:#181818;stroke-width:1;"/><polygon fill="#181818" points="425.34,810.85,427.686,801.2846,424.4561,805.9288,419.812,802.6989,425.34,810.85" style="stroke:#181818;stroke-width:1;"/></g><!--link Admin to UC_AiDispatch--><g class="link" data-entity-1="ent0004" data-entity-2="ent0020" data-link-type="dependency" data-source-line="60" id="lnk40"><path d="M69.95,970.48 C81.82,987.9 96.69,1007.06 113,1021.92 C128.56,1036.1 143.5344,1045.4262 160.1444,1054.0462" fill="none" id="Admin-to-UC_AiDispatch" style="stroke:#181818;stroke-width:1;"/><polygon fill="#181818" points="165.47,1056.81,159.3242,1049.114,161.032,1054.5069,155.6391,1056.2147,165.47,1056.81" style="stroke:#181818;stroke-width:1;"/></g><!--link Admin to UC_Tracking--><g class="link" data-entity-1="ent0004" data-entity-2="ent0021" data-link-type="dependency" data-source-line="61" id="lnk41"><path d="M41.4,970.38 C41.08,1081.17 47.07,1355.87 113,1412.92 C201.98,1489.91 348.086,1387.8671 403.076,1344.0871" fill="none" id="Admin-to-UC_Tracking" style="stroke:#181818;stroke-width:1;"/><polygon fill="#181818" points="407.77,1340.35,398.2375,1342.8263,403.8583,1343.4643,403.2204,1349.085,407.77,1340.35" style="stroke:#181818;stroke-width:1;"/></g><!--link Admin to UC_ETA--><g class="link" data-entity-1="ent0004" data-entity-2="ent0022" data-link-type="dependency" data-source-line="62" id="lnk42"><path d="M49.46,970.45 C58.34,1013.3 76.78,1076.61 113,1119.92 C125.37,1134.71 138.1351,1143.3243 154.3051,1151.1943" fill="none" id="Admin-to-UC_ETA" style="stroke:#181818;stroke-width:1;"/><polygon fill="#181818" points="159.7,1153.82,153.3581,1146.2848,155.2042,1151.6319,149.8571,1153.478,159.7,1153.82" style="stroke:#181818;stroke-width:1;"/></g><!--link Admin to UC_Analytics--><g class="link" data-entity-1="ent0004" data-entity-2="ent0023" data-link-type="dependency" data-source-line="63" id="lnk43"><path d="M50.16,877.67 C59.44,836.2 78.07,775.63 113,733.92 C125.76,718.68 139.1691,709.6745 155.6291,701.5545" fill="none" id="Admin-to-UC_Analytics" style="stroke:#181818;stroke-width:1;"/><polygon fill="#181818" points="161.01,698.9,151.169,699.2945,156.5259,701.1121,154.7083,706.469,161.01,698.9" style="stroke:#181818;stroke-width:1;"/></g><!--link UC_Book to UC_ViewTrip--><g class="link" data-entity-1="ent0008" data-entity-2="ent0007" data-link-type="dependency" data-source-line="65" id="lnk44"><path d="M233.38,301.15 C276.75,302.66 343.6436,304.9713 387.0336,306.4813" fill="none" id="UC_Book-to-UC_ViewTrip" style="stroke:#181818;stroke-width:1;stroke-dasharray:7,7;"/><polygon fill="#181818" points="393.03,306.69,384.1746,302.3794,388.033,306.5161,383.8963,310.3746,393.03,306.69" style="stroke:#181818;stroke-width:1;"/><text fill="#000000" font-family="'Microsoft YaHei, SimHei, Arial, sans-serif'" font-size="13" lengthAdjust="spacing" textLength="63.0068" x="285.63" y="290.9869">&#171;include&#187;</text></g><!--link UC_Cancel to UC_Credit--><g class="link" data-entity-1="ent0010" data-entity-2="ent0011" data-link-type="dependency" data-source-line="66" id="lnk45"><path d="M231.38,486.1 C271.14,479.21 331.6881,468.7246 376.3481,460.9846" fill="none" id="UC_Cancel-to-UC_Credit" style="stroke:#181818;stroke-width:1;stroke-dasharray:7,7;"/><polygon fill="#181818" points="382.26,459.96,372.7091,457.5556,377.3334,460.8138,374.0752,465.4381,382.26,459.96" style="stroke:#181818;stroke-width:1;"/><text fill="#000000" font-family="'Microsoft YaHei, SimHei, Arial, sans-serif'" font-size="13" lengthAdjust="spacing" textLength="63.0068" x="285.63" y="452.9869">&#171;include&#187;</text></g><!--link UC_ShareLocation to UC_Task--><g class="link" data-entity-1="ent0016" data-entity-2="ent0013" data-link-type="dependency" data-source-line="67" id="lnk46"><path d="M705.49,1327.66 C741.77,1331.11 784.707,1335.1814 820.947,1338.6314" fill="none" id="UC_ShareLocation-to-UC_Task" style="stroke:#181818;stroke-width:1;stroke-dasharray:7,7;"/><polygon fill="#181818" points="826.92,1339.2,818.3396,1334.3651,821.9425,1338.7261,817.5814,1342.3291,826.92,1339.2" style="stroke:#181818;stroke-width:1;"/><text fill="#000000" font-family="'Microsoft YaHei, SimHei, Arial, sans-serif'" font-size="13" lengthAdjust="spacing" textLength="61.1851" x="735.62" y="1317.9869">&#171;extend&#187;</text></g><!--link UC_Tracking to UC_ShareLocation--><g class="link" data-entity-1="ent0021" data-entity-2="ent0016" data-link-type="dependency" data-source-line="68" id="lnk47"><path d="M482.07,1322.92 C518.21,1322.92 560.35,1322.92 596.44,1322.92" fill="none" id="UC_Tracking-to-UC_ShareLocation" style="stroke:#181818;stroke-width:1;stroke-dasharray:7,7;"/><polygon fill="#181818" points="602.44,1322.92,593.44,1318.92,597.44,1322.92,593.44,1326.92,602.44,1322.92" style="stroke:#181818;stroke-width:1;"/><text fill="#000000" font-family="'Microsoft YaHei, SimHei, Arial, sans-serif'" font-size="13" lengthAdjust="spacing" textLength="63.0068" x="510.62" y="1310.9869">&#171;include&#187;</text></g><!--link UC_ETA to UC_Tracking--><g class="link" data-entity-1="ent0022" data-entity-2="ent0021" data-link-type="dependency" data-source-line="69" id="lnk48"><path d="M222.96,1184.8 C267.47,1214.7 354.649,1273.2349 398.889,1302.9449" fill="none" id="UC_ETA-to-UC_Tracking" style="stroke:#181818;stroke-width:1;stroke-dasharray:7,7;"/><polygon fill="#181818" points="403.87,1306.29,398.6285,1297.9517,399.7192,1303.5024,394.1684,1304.5931,403.87,1306.29" style="stroke:#181818;stroke-width:1;"/><text fill="#000000" font-family="'Microsoft YaHei, SimHei, Arial, sans-serif'" font-size="13" lengthAdjust="spacing" textLength="63.0068" x="285.63" y="1210.9869">&#171;include&#187;</text></g><!--link UC_AiDispatch to UC_ManualDispatch--><g class="link" data-entity-1="ent0020" data-entity-2="ent0019" data-link-type="dependency" data-source-line="70" id="lnk49"><path d="M219.16,1054.41 C230.62,1045.23 244.79,1033.38 256.63,1021.92 C319.86,960.76 383.3018,884.7729 411.3418,850.3329" fill="none" id="UC_AiDispatch-to-UC_ManualDispatch" style="stroke:#181818;stroke-width:1;stroke-dasharray:7,7;"/><polygon fill="#181818" points="415.13,845.68,406.3457,850.1338,411.9731,849.5574,412.5496,855.1848,415.13,845.68" style="stroke:#181818;stroke-width:1;"/><text fill="#000000" font-family="'Microsoft YaHei, SimHei, Arial, sans-serif'" font-size="13" lengthAdjust="spacing" textLength="61.1851" x="286.63" y="902.9869">&#171;extend&#187;</text></g><?plantuml-src RLJHJXD157tVhvZq6OWW6cC8IG6D9a182YO-cSdkj9rqErjdja8r9YPAKp6b9G419M19YXYreXAGDiMVwUwMlt2sosndt3wrEUVSEtVkERCiWqaEKfW51ah2l6dVjuWz3xC8nEQmJYrc9Mtm63v0U0WaSBRt6wSOcaE0GSA66Q8u6TFOe3O9_1o1qLiIkG0D0vCKk2DXKzQAW4V752sriOvpaDY27xyXyGdqD8-8ZgJwCPadbe4Ooe7RCaWXoVYWqYbEgRNS7_YcJEcsHVlKk4GjCQH3XcJIH7nPjWKeJgLjO62AT1jRH2hAGJq3KoXX5qm4V1gIb8aq3VhdW9YxsxXwzS7RF7PBvp406Ly2OuYa41KAf_B7tMlsk1cAdqb4TTsfd7YDcbSjEXixFKNSo6AYQU4v_81FjMxxA51vlrjUwo06NcW0v8FBW9YtstBQMuBYFPQcdynQATv64ha7TM_l7M_aVgi9qIECbXSfpicwgyCtNlD8rKrPLaRfjVcZqzhXckxfXT0im88iSIhltRDIq4n8fY6ttemErVbRu-lplh_rcfz3BKK6jgDQVzK7TQ6QjsoSB6XHcNjwoSVhj5hEMdYBHSWo0mw_s74QXqwrx9It-dUvTd0Mim4pkDjrP-FOtIlnVNSROV_0suGDRQPiOlLdf_dLQUoxssUTTjbhDqH18WqfchLqs0kSNEElzh8OM1wQXT9OvxbJbkm7IvK5KyobiihWdMRJEQztJruxVJlc8Cb3SmQp7BJrjAoEFmJTorLdxOjQ4CU3nFBDl8yRxdheuIBbBuU_yUW6-SRvQm7t5kD2o_ygJTUBJkMNktNYbXjEgUZkLyCX23GB_2F3j9UQ5Xe5XeSd-x6Fm67G8qmlsX7K3tC4l8vl50-Y6i55E0D7r0bLh9TC5L8Zg79oq5JclqJrlYNgmGea8gM0Ke0K_B-uA9oK30KF4w2WljTgUUYfTcq961bHZ0DtmSG49hgPDz3af1Qw8NI11r6LiX0XzjVTaw8L6n4ZK8fHXKYjZ3JcTmZRYSg8gByMeLMNg0pn3m00?></g></svg>